<svg xmlns="http://www.w3.org/2000/svg" opacity="0.3" viewBox="0 0 1440 320"><path fill="#022c22" fill-opacity="1" d="M0,0L34.3,48C68.6,96,137,192,206,224C274.3,256,343,224,411,213.3C480,203,549,213,617,224C685.7,235,754,245,823,213.3C891.4,181,960,107,1029,106.7C1097.1,107,1166,181,1234,224C1302.9,267,1371,277,1406,282.7L1440,288L1440,0L1405.7,0C1371.4,0,1303,0,1234,0C1165.7,0,1097,0,1029,0C960,0,891,0,823,0C754.3,0,686,0,617,0C548.6,0,480,0,411,0C342.9,0,274,0,206,0C137.1,0,69,0,34,0L0,0Z"></path></svg>